<svg id="Icons" height="512" viewBox="0 0 74 74" width="512" xmlns="http://www.w3.org/2000/svg"><path d="m40.679 67.153a1 1 0 0 1 -.922-1.388l6.143-14.577-7.949-6.417a1 1 0 0 1 -.291-1.172l5.854-13.664-9.814-6.435a1 1 0 0 1 -.331-1.314l4.722-8.681a16.394 16.394 0 0 1 14.687-8.99 18.944 18.944 0 0 1 13.791 6.285 20.587 20.587 0 0 1 5.361 15.589c-1.535 18.536-29.463 39.674-30.652 40.565a1 1 0 0 1 -.599.199zm-.887-23.463 7.945 6.41a1 1 0 0 1 .294 1.167l-4.9 11.646c7.371-6.1 25.639-22.563 26.811-36.694a18.334 18.334 0 0 0 -4.842-14.065 16.939 16.939 0 0 0 -12.32-5.639 14.4 14.4 0 0 0 -12.931 7.95l-4.282 7.872 9.74 6.386a1 1 0 0 1 .371 1.23z"/><path d="m33.321 69.485a1 1 0 0 1 -.6-.2c-1.188-.89-29.116-22.027-30.651-40.564a20.585 20.585 0 0 1 5.361-15.591 18.944 18.944 0 0 1 13.791-6.283 17.852 17.852 0 0 1 12.816 5.632 1 1 0 0 1 .162 1.174l-5.991 11.015 9.74 6.386a1 1 0 0 1 .371 1.23l-5.884 13.738 7.945 6.415a1 1 0 0 1 .294 1.167l-6.432 15.27a1 1 0 0 1 -.922.612zm-12.099-60.638a16.939 16.939 0 0 0 -12.322 5.639 18.335 18.335 0 0 0 -4.837 14.071c1.303 15.724 23.759 34.319 28.842 38.343l5.634-13.375-7.949-6.425a1 1 0 0 1 -.291-1.172l5.854-13.663-9.81-6.431a1 1 0 0 1 -.331-1.314l6.072-11.164a15.759 15.759 0 0 0 -10.862-4.509z"/></svg>